<?xml version="1.0" encoding="utf-8"?>
<svg version="1.1" xmlns="http://www.w3.org/2000/svg" xmlns:xlink="http://www.w3.org/1999/xlink" x="0px" y="0px" viewBox="-8.903 -7.351 100 100" enable-background="new -8.903 -7.351 100 100" xml:space="preserve">
<path d="M45.097,75.649c0,0.553-0.447,1-1,1h-8c-0.553,0-1-0.447-1-1l0,0c0-0.553,0.447-1,1-1h8  C44.649,74.649,45.097,75.097,45.097,75.649L45.097,75.649z"></path>
<path d="M46.196,33.368c0,0,1.026-1.983,0-2.872s-2.212-1.778-2.645-1.847h-3.101H37.19c-0.433,0.068-1.778,0.958-2.805,1.847  c-1.025,0.889,0.046,2.872,0.046,2.872s3.032,3.969,4.004,5.062c0.973,1.094,2.016,0.889,2.016,0.889s0.86,0.205,1.832-0.889  C43.256,37.337,46.196,33.368,46.196,33.368z"></path>
<path d="M39.036,70.997c-0.396-2.265-3.129-4.21-7.051-5.308c-3.347,2.916-7.686,4.71-12.389,4.71c-2.859,0-5.577-0.678-8.029-1.849  c-0.858,0.894-1.346,1.884-1.346,2.91c0,0.07,0.018,0.194,0.022,0.265c-0.095,0.443-0.147,0.927-0.147,1.397  c0,3.59,2.91,6.527,6.5,6.527h16c3.072,0,5.64-2.133,6.318-4.998c0.322-0.591,0.515-1.244,0.515-1.939  C39.43,72.104,39.285,71.528,39.036,70.997z"></path>
<path d="M80.535,48.676c-1.416-1.75-14.918-13.698-15.251-16.939s-2.693-14.33-2.953-15.58C62.073,14.917,60.097,0.343,41.097,0  l-1,0.001c-18,0.363-20.904,14.918-21.161,16.155c-0.248,1.192-2.33,11.321-2.812,15.072c1.104-0.206,2.233-0.329,3.39-0.329  c3.158,0,6.152,0.812,8.795,2.223c0.098-0.073,0.188-0.151,0.288-0.223c0.141-0.102,0.27-0.196,0.401-0.293l-0.286-0.294  l0.839-0.856c-2.668-1.148-4.537-3.801-4.537-6.89c0-4.142,3.357-7.5,7.5-7.5c3.035,0,5.644,1.807,6.823,4.399l1.274-1.301  l1.299,1.301c1.18-2.593,3.842-4.399,6.877-4.399c4.143,0,7.5,3.358,7.5,7.5c0,3.089-1.869,5.741-4.537,6.89l0.839,0.856  l-0.286,0.294c0.132,0.097,0.261,0.191,0.401,0.293c12.09,8.743,10.478,26.051,9.812,30.614c-0.094,0.535-0.221,1.132-0.387,1.749  c-1.695-0.333-3.539-0.529-5.489-0.529c-7.191,0-13.137,2.49-14.237,5.748c-0.432,0.663-0.699,1.416-0.699,2.23  c0,0.879,0.302,1.691,0.8,2.39c0.829,2.636,3.291,4.548,6.2,4.548h16c3.59,0,6.5-2.91,6.5-6.5c0-0.471-0.053-0.928-0.147-1.371  c0.005-0.07,0.022-0.141,0.022-0.212c0-2.379-2.574-4.469-6.471-5.692l1.159-2.797h-0.001c1.098-2.688,3.569-9.654,3.518-13.722  l0.003,0.003c0,0,1.584-0.355,3.667,1.062c2.083,1.416,6.166,4.031,7.999,2.613C82.786,51.618,81.951,50.426,80.535,48.676z"></path>
<ellipse cx="43.329" cy="23.608" rx="1.625" ry="3.125"></ellipse>
<ellipse cx="37.972" cy="23.608" rx="1.625" ry="3.125"></ellipse>
<path d="M19.402,31.165C8.687,31.165,0,39.852,0,50.567s8.687,19.402,19.402,19.402s19.402-8.687,19.402-19.402  S30.118,31.165,19.402,31.165z M26.517,44.1c0.357,0,0.646,0.289,0.646,0.646s-0.289,0.647-0.646,0.647s-0.646-0.29-0.646-0.647  S26.159,44.1,26.517,44.1z M20.049,41.512c0.357,0,0.646,0.29,0.646,0.647s-0.289,0.647-0.646,0.647s-0.646-0.29-0.646-0.647  S19.691,41.512,20.049,41.512z M13.582,44.1c0.357,0,0.646,0.289,0.646,0.646s-0.289,0.647-0.646,0.647s-0.647-0.29-0.647-0.647  S13.225,44.1,13.582,44.1z M12.288,50.567c-0.357,0-0.646-0.29-0.646-0.647s0.289-0.646,0.646-0.646s0.646,0.289,0.646,0.646  S12.646,50.567,12.288,50.567z M13.582,55.741c-0.357,0-0.647-0.289-0.647-0.646c0-0.358,0.29-0.647,0.647-0.647  s0.646,0.289,0.646,0.647C14.229,55.452,13.939,55.741,13.582,55.741z M20.049,58.328c-0.357,0-0.646-0.289-0.646-0.646  s0.289-0.647,0.646-0.647s0.646,0.29,0.646,0.647S20.406,58.328,20.049,58.328z M20.049,55.741c-3.215,0-5.82-2.606-5.82-5.821  c0-3.214,2.605-5.82,5.82-5.82c3.216,0,5.821,2.606,5.821,5.82C25.87,53.135,23.265,55.741,20.049,55.741z M26.517,55.741  c-0.357,0-0.646-0.289-0.646-0.646c0-0.358,0.289-0.647,0.646-0.647s0.646,0.289,0.646,0.647  C27.163,55.452,26.874,55.741,26.517,55.741z M27.81,50.567c-0.357,0-0.646-0.29-0.646-0.647s0.289-0.646,0.646-0.646  s0.647,0.289,0.647,0.646S28.167,50.567,27.81,50.567z"></path>
<rect x="78.097" y="11.649" width="2" height="66"></rect>
<polygon points="79.097,11.649 80.32,13.649 81.544,15.649 80.32,9.149 79.097,2.649 77.873,9.149 76.649,15.649 77.873,13.649 "></polygon>
</svg>